<svg xmlns="http://www.w3.org/2000/svg" viewBox="0 0 128 64" shape-rendering="crispEdges">
  <g fill="#2a2420">
    <rect x="75" y="3" width="5" height="1"/>
    <rect x="72" y="4" width="9" height="1"/>
    <rect x="72" y="5" width="11" height="1"/>
    <rect x="69" y="6" width="18" height="1"/>
    <rect x="67" y="7" width="22" height="1"/>
    <rect x="67" y="8" width="22" height="1"/>
    <rect x="66" y="9" width="24" height="1"/>
    <rect x="65" y="10" width="26" height="1"/>
    <rect x="65" y="11" width="26" height="1"/>
    <rect x="63" y="12" width="30" height="1"/>
    <rect x="62" y="13" width="21" height="1"/>
    <rect x="85" y="13" width="9" height="1"/>
    <rect x="62" y="14" width="21" height="1"/>
    <rect x="85" y="14" width="9" height="1"/>
    <rect x="60" y="15" width="23" height="1"/>
    <rect x="85" y="15" width="10" height="1"/>
    <rect x="59" y="16" width="24" height="1"/>
    <rect x="85" y="16" width="11" height="1"/>
    <rect x="59" y="17" width="37" height="1"/>
    <rect x="58" y="18" width="39" height="1"/>
    <rect x="54" y="19" width="43" height="1"/>
    <rect x="51" y="20" width="46" height="1"/>
    <rect x="50" y="21" width="47" height="1"/>
    <rect x="48" y="22" width="49" height="1"/>
    <rect x="47" y="23" width="50" height="1"/>
    <rect x="47" y="24" width="50" height="1"/>
    <rect x="46" y="25" width="26" height="1"/>
    <rect x="73" y="25" width="10" height="1"/>
    <rect x="84" y="25" width="13" height="1"/>
    <rect x="44" y="26" width="27" height="1"/>
    <rect x="75" y="26" width="9" height="1"/>
    <rect x="86" y="26" width="11" height="1"/>
    <rect x="43" y="27" width="26" height="1"/>
    <rect x="77" y="27" width="9" height="1"/>
    <rect x="89" y="27" width="7" height="1"/>
    <rect x="6" y="28" width="2" height="1"/>
    <rect x="42" y="28" width="27" height="1"/>
    <rect x="79" y="28" width="8" height="1"/>
    <rect x="91" y="28" width="5" height="1"/>
    <rect x="5" y="29" width="3" height="1"/>
    <rect x="41" y="29" width="28" height="1"/>
    <rect x="82" y="29" width="7" height="1"/>
    <rect x="93" y="29" width="2" height="1"/>
    <rect x="5" y="30" width="3" height="1"/>
    <rect x="41" y="30" width="28" height="1"/>
    <rect x="82" y="30" width="8" height="1"/>
    <rect x="94" y="30" width="1" height="1"/>
    <rect x="4" y="31" width="4" height="1"/>
    <rect x="40" y="31" width="32" height="1"/>
    <rect x="84" y="31" width="8" height="1"/>
    <rect x="103" y="31" width="24" height="1"/>
    <rect x="4" y="32" width="2" height="1"/>
    <rect x="40" y="32" width="33" height="1"/>
    <rect x="86" y="32" width="6" height="1"/>
    <rect x="102" y="32" width="26" height="1"/>
    <rect x="4" y="33" width="2" height="1"/>
    <rect x="39" y="33" width="34" height="1"/>
    <rect x="88" y="33" width="2" height="1"/>
    <rect x="102" y="33" width="26" height="1"/>
    <rect x="3" y="34" width="3" height="1"/>
    <rect x="39" y="34" width="30" height="1"/>
    <rect x="71" y="34" width="2" height="1"/>
    <rect x="101" y="34" width="27" height="1"/>
    <rect x="2" y="35" width="3" height="1"/>
    <rect x="38" y="35" width="30" height="1"/>
    <rect x="71" y="35" width="1" height="1"/>
    <rect x="101" y="35" width="26" height="1"/>
    <rect x="2" y="36" width="3" height="1"/>
    <rect x="38" y="36" width="30" height="1"/>
    <rect x="101" y="36" width="26" height="1"/>
    <rect x="2" y="37" width="3" height="1"/>
    <rect x="38" y="37" width="30" height="1"/>
    <rect x="101" y="37" width="26" height="1"/>
    <rect x="2" y="38" width="3" height="1"/>
    <rect x="37" y="38" width="33" height="1"/>
    <rect x="100" y="38" width="26" height="1"/>
    <rect x="1" y="39" width="4" height="1"/>
    <rect x="36" y="39" width="35" height="1"/>
    <rect x="100" y="39" width="26" height="1"/>
    <rect x="1" y="40" width="4" height="1"/>
    <rect x="35" y="40" width="37" height="1"/>
    <rect x="100" y="40" width="25" height="1"/>
    <rect x="1" y="41" width="4" height="1"/>
    <rect x="35" y="41" width="37" height="1"/>
    <rect x="100" y="41" width="25" height="1"/>
    <rect x="0" y="42" width="5" height="1"/>
    <rect x="34" y="42" width="38" height="1"/>
    <rect x="99" y="42" width="26" height="1"/>
    <rect x="0" y="43" width="6" height="1"/>
    <rect x="32" y="43" width="40" height="1"/>
    <rect x="99" y="43" width="13" height="1"/>
    <rect x="115" y="43" width="10" height="1"/>
    <rect x="0" y="44" width="6" height="1"/>
    <rect x="31" y="44" width="41" height="1"/>
    <rect x="99" y="44" width="12" height="1"/>
    <rect x="115" y="44" width="10" height="1"/>
    <rect x="0" y="45" width="6" height="1"/>
    <rect x="30" y="45" width="42" height="1"/>
    <rect x="98" y="45" width="13" height="1"/>
    <rect x="114" y="45" width="10" height="1"/>
    <rect x="0" y="46" width="8" height="1"/>
    <rect x="29" y="46" width="43" height="1"/>
    <rect x="98" y="46" width="13" height="1"/>
    <rect x="114" y="46" width="10" height="1"/>
    <rect x="0" y="47" width="8" height="1"/>
    <rect x="29" y="47" width="43" height="1"/>
    <rect x="98" y="47" width="26" height="1"/>
    <rect x="0" y="48" width="8" height="1"/>
    <rect x="27" y="48" width="44" height="1"/>
    <rect x="98" y="48" width="26" height="1"/>
    <rect x="1" y="49" width="8" height="1"/>
    <rect x="23" y="49" width="46" height="1"/>
    <rect x="97" y="49" width="26" height="1"/>
    <rect x="2" y="50" width="10" height="1"/>
    <rect x="20" y="50" width="49" height="1"/>
    <rect x="97" y="50" width="26" height="1"/>
    <rect x="2" y="51" width="66" height="1"/>
    <rect x="97" y="51" width="26" height="1"/>
    <rect x="2" y="52" width="56" height="1"/>
    <rect x="59" y="52" width="9" height="1"/>
    <rect x="97" y="52" width="25" height="1"/>
    <rect x="4" y="53" width="54" height="1"/>
    <rect x="59" y="53" width="9" height="1"/>
    <rect x="96" y="53" width="26" height="1"/>
    <rect x="4" y="54" width="54" height="1"/>
    <rect x="59" y="54" width="9" height="1"/>
    <rect x="96" y="54" width="26" height="1"/>
    <rect x="4" y="55" width="43" height="1"/>
    <rect x="48" y="55" width="10" height="1"/>
    <rect x="59" y="55" width="10" height="1"/>
    <rect x="96" y="55" width="26" height="1"/>
    <rect x="5" y="56" width="39" height="1"/>
    <rect x="48" y="56" width="23" height="1"/>
    <rect x="95" y="56" width="26" height="1"/>
    <rect x="8" y="57" width="30" height="1"/>
    <rect x="48" y="57" width="24" height="1"/>
    <rect x="94" y="57" width="27" height="1"/>
    <rect x="12" y="58" width="20" height="1"/>
    <rect x="48" y="58" width="24" height="1"/>
    <rect x="77" y="58" width="2" height="1"/>
    <rect x="84" y="58" width="36" height="1"/>
    <rect x="12" y="59" width="20" height="1"/>
    <rect x="48" y="59" width="24" height="1"/>
    <rect x="76" y="59" width="44" height="1"/>
    <rect x="48" y="60" width="14" height="1"/>
    <rect x="76" y="60" width="32" height="1"/>
  </g>
</svg>
